<svg width="43" height="34" viewBox="0 0 43 34" fill="none" xmlns="http://www.w3.org/2000/svg">
<path d="M28.9323 1.61151C23.599 1.17763 24.2881 5.51858 19.2779 6.32787C14.9431 7.02805 14.0692 2.76741 8.60282 4.8953C-0.34935 8.37223 2.21806 32.6715 7.35066 33.1376C10.2002 33.3961 10.9572 29.4372 14.1261 26.1715C14.7401 26.5523 15.4148 26.7617 16.0942 26.7822C16.7737 26.8027 17.4383 26.6337 18.0329 26.2893C18.6276 25.945 19.1352 25.4351 19.5137 24.802C19.8921 24.1689 20.1305 23.4308 20.2091 22.6488C20.7743 22.4973 21.3464 22.3749 21.9236 22.2822C22.5314 22.1841 23.1042 22.1231 23.6576 22.0906C23.9854 22.807 24.4505 23.4315 25.0144 23.9121C25.5783 24.3928 26.2246 24.7158 26.8999 24.8545C27.5752 24.9931 28.2599 24.9434 28.8972 24.7093C29.5346 24.4753 30.1062 24.0638 30.5648 23.5088C34.6282 25.6064 36.626 29.1243 39.2439 27.9818C43.9577 25.9293 38.5495 2.39302 28.9323 1.61151ZM11.9684 16.9874L9.8402 17.3312L9.41689 14.7803L7.25189 15.13L6.83559 12.6214L9.00043 12.2717L8.57696 9.71994L10.7052 9.37618L11.1285 11.9269L13.2923 11.5774L13.7086 14.0861L11.5448 14.4356L11.9681 16.9864L11.9684 16.9874ZM16.5069 25.084C15.9541 25.1733 15.3816 25.0674 14.8619 24.7795C14.3422 24.4917 13.8986 24.035 13.5871 23.4671C13.2757 22.8993 13.1104 22.2457 13.1122 21.5892C13.114 20.9327 13.2828 20.3026 13.5972 19.7787C13.9117 19.2547 14.3576 18.8605 14.8787 18.6458C15.3998 18.4311 15.9726 18.4056 16.5247 18.5725C17.0768 18.7393 17.5834 19.0911 17.9805 19.5834C18.3775 20.0756 18.6472 20.6861 18.7553 21.3377C18.9005 22.2115 18.7453 23.0972 18.3239 23.7999C17.9025 24.5026 17.2493 24.9648 16.508 25.0848L16.5069 25.084ZM27.9524 23.2353C27.3995 23.324 26.8272 23.2175 26.3077 22.9292C25.7883 22.641 25.345 22.1839 25.0339 21.6159C24.7228 21.0478 24.558 20.3943 24.5601 19.7378C24.5623 19.0814 24.7314 18.4515 25.0461 17.9279C25.3608 17.4043 25.8069 17.0104 26.328 16.7961C26.8492 16.5817 27.4219 16.5565 27.9739 16.7237C28.5259 16.8908 29.0324 17.2428 29.4292 17.7352C29.826 18.2275 30.0954 18.838 30.2034 19.4896C30.2752 19.9226 30.274 20.3629 30.1997 20.7856C30.1254 21.2082 29.9796 21.6049 29.7706 21.9528C29.5615 22.3008 29.2934 22.5932 28.9814 22.8134C28.6694 23.0336 28.3198 23.1773 27.9525 23.2362L27.9524 23.2353ZM28.0976 12.1806C27.8187 12.2257 27.5299 12.1723 27.2676 12.0272C27.0054 11.882 26.7815 11.6516 26.6243 11.3651C26.4672 11.0786 26.3838 10.7488 26.3847 10.4176C26.3855 10.0863 26.4707 9.76841 26.6293 9.50406C26.788 9.23971 27.013 9.0408 27.2759 8.93248C27.5388 8.82416 27.8279 8.8113 28.1064 8.89553C28.385 8.97975 28.6406 9.15728 28.8409 9.40566C29.0412 9.65404 29.1772 9.96211 29.2317 10.2909C29.3049 10.7318 29.2265 11.1786 29.0138 11.533C28.801 11.8875 28.4714 12.1205 28.0974 12.181L28.0976 12.1806ZM31.7492 15.2876C31.4703 15.3327 31.1815 15.2793 30.9192 15.1341C30.657 14.9889 30.4332 14.7585 30.276 14.472C30.1189 14.1855 30.0355 13.8558 30.0364 13.5246C30.0373 13.1933 30.1224 12.8755 30.281 12.6111C30.4396 12.3468 30.6646 12.1479 30.9275 12.0395C31.1904 11.9312 31.4794 11.9183 31.758 12.0024C32.0365 12.0866 32.2921 12.2641 32.4924 12.5124C32.6928 12.7607 32.8288 13.0687 32.8834 13.3975C32.9198 13.6162 32.9192 13.8387 32.8817 14.0522C32.8442 14.2658 32.7705 14.4661 32.6649 14.6419C32.5592 14.8176 32.4236 14.9652 32.2659 15.0763C32.1082 15.1874 31.9315 15.2597 31.7458 15.2892L31.7492 15.2876ZM30.5541 8.08621C30.2752 8.13128 29.9864 8.07785 29.7242 7.93267C29.462 7.78749 29.2381 7.55708 29.081 7.27058C28.9238 6.98408 28.8404 6.65437 28.8413 6.32312C28.8422 5.99188 28.9273 5.67399 29.086 5.40965C29.2446 5.14532 29.4696 4.9464 29.7325 4.83807C29.9954 4.72974 30.2844 4.71685 30.563 4.80104C30.8415 4.88523 31.0971 5.06271 31.2974 5.31104C31.4977 5.55938 31.6338 5.8674 31.6883 6.19617C31.7247 6.41487 31.7242 6.63736 31.6867 6.85088C31.6492 7.0644 31.5755 7.26477 31.4698 7.44049C31.3641 7.61621 31.2285 7.76384 31.0708 7.8749C30.9131 7.98597 30.7364 8.0583 30.5508 8.08774L30.5541 8.08621ZM34.2056 11.193C33.9267 11.2381 33.6379 11.1846 33.3757 11.0394C33.1135 10.8942 32.8897 10.6638 32.7325 10.3773C32.5754 10.0908 32.492 9.7611 32.4929 9.42986C32.4938 9.09862 32.579 8.78074 32.7376 8.51641C32.8962 8.25208 33.1212 8.05318 33.3841 7.94486C33.647 7.83653 33.936 7.82365 34.2146 7.90784C34.4931 7.99204 34.7487 8.16952 34.949 8.41785C35.1494 8.66618 35.2854 8.97421 35.3399 9.30297C35.3764 9.52169 35.3758 9.7442 35.3383 9.95775C35.3008 10.1713 35.2271 10.3717 35.1214 10.5474C35.0157 10.7232 34.8801 10.8708 34.7224 10.9819C34.5646 11.0929 34.3879 11.1652 34.2022 11.1947L34.2056 11.193Z" fill="#03553A"/>
</svg>
